<svg width="48" height="116" fill="none" xmlns="http://www.w3.org/2000/svg"><path fill-rule="evenodd" clip-rule="evenodd" d="M25.425 13.705C20.203 9.857 14.697 4.037 5.488 0c6.741.094 17.47 5.063 19.937 13.705zm-5.981 1.217c.911.491 1.865.9 2.849 1.22 1.539.328 3.06.736 4.556 1.222a8.98 8.98 0 012.944 1.971 8.51 8.51 0 011.709 2.159 12.122 12.122 0 011.614 5.443 13.082 13.082 0 00-1.993-1.971 12.458 12.458 0 00-3.134-1.972c-.76-.376-1.519-.75-2.183-1.127a26.213 26.213 0 01-6.365-6.944l.003-.001z" fill="#E1B43C"/><path fill-rule="evenodd" clip-rule="evenodd" d="M33.212 26.844a19.298 19.298 0 00-3.134-8.26 17.8 17.8 0 01-1.993-3.762 33.886 33.886 0 01-2.089-7.033 44.363 44.363 0 013.893 3.003c2.944 2.723 4.652 5.726 4.178 9.856a22.203 22.203 0 01-.855 6.196zm-5.222.469c.778.67 1.64 1.238 2.563 1.69a35.996 35.996 0 014.272 2.065 9.048 9.048 0 012.563 2.44c.551.75.998 1.571 1.33 2.44.63 1.808.794 3.745.474 5.632a16.991 16.991 0 00-1.519-2.346 16.74 16.74 0 00-2.659-2.535c-.664-.562-1.329-1.032-1.899-1.501-2.563-2.252-3.703-4.975-5.127-7.886h.002z" fill="#E1B43C"/><path fill-rule="evenodd" clip-rule="evenodd" d="M39.1 41.673c.474-2.44-.664-6.943-1.424-8.73a19.861 19.861 0 01-1.234-4.036 34.323 34.323 0 01-.664-7.321 44.756 44.756 0 013.228 3.661c2.373 3.285 3.418 6.477 2.184 10.416-.38 1.501-1.044 4.787-2.089 6.008l-.001.002zm-5.983-1.97c.633.95 1.365 1.832 2.183 2.629a47.832 47.832 0 013.893 3.471 8.616 8.616 0 011.9 3.38 9.24 9.24 0 01.57 3.003 13.276 13.276 0 01-1.235 6.102 68.036 68.036 0 00-.855-3.003 18.4 18.4 0 00-1.993-3.568c-.57-.75-1.044-1.501-1.519-2.252-1.993-3.003-2.374-6.289-2.944-9.762z" fill="#E1B43C"/><path fill-rule="evenodd" clip-rule="evenodd" d="M40.43 58.48c1.33-2.441 1.519-7.604 1.234-9.762a25.828 25.828 0 010-4.693 35.964 35.964 0 011.614-7.978c.76 1.501 1.519 3.003 2.278 4.88 1.424 4.225 1.52 7.979-1.044 11.828-.855 1.408-2.659 4.693-4.082 5.726v-.002zm-4.939-4.226a15.766 15.766 0 001.615 3.097c1.14 1.69 2.278 2.817 3.133 4.318a9.479 9.479 0 011.14 3.848c.095 1.03.095 2.067 0 3.097a13.762 13.762 0 01-2.563 5.914c.006-1.07-.09-2.14-.29-3.191a16.03 16.03 0 00-1.234-3.942c-.38-.939-.76-1.69-1.044-2.535-1.33-3.567-.95-6.943-.76-10.606h.003z" fill="#E1B43C"/><path fill-rule="evenodd" clip-rule="evenodd" d="M38.719 74.527a20.75 20.75 0 003.327-9.48c.166-1.6.517-3.175 1.044-4.693a32.085 32.085 0 013.419-7.698c.507 1.792.919 3.61 1.234 5.445.57 4.506-.19 8.354-3.513 11.64-1.33 1.22-3.892 4.13-5.507 4.786h-.004zm-3.517-6.379a13.31 13.31 0 00.663 3.662 51.858 51.858 0 011.804 5.445 9.451 9.451 0 01-.095 4.318 14.042 14.042 0 01-1.045 3.191 14.396 14.396 0 01-4.556 5.257 15.65 15.65 0 00.76-3.38c.19-1.495.19-3.01 0-4.505-.096-1.033-.19-2.066-.29-2.911-.096-4.036 1.33-7.415 2.748-11.077h.01z" fill="#E1B43C"/><path fill-rule="evenodd" clip-rule="evenodd" d="M31.973 90.112c2.563-1.59 5.6-6.476 6.55-8.73a30.52 30.52 0 012.563-4.506 39.538 39.538 0 015.982-6.853c-.096 1.881-.19 3.662-.475 6.008-.949 4.881-2.943 8.535-7.405 10.795-1.804.845-5.316 3.097-7.215 3.285v.001zm-1.611-8.167a17.798 17.798 0 00-.57 4.13 49.11 49.11 0 010 6.477 12.547 12.547 0 01-1.519 4.6 16.507 16.507 0 01-2.278 3.097 15.97 15.97 0 01-6.741 4.036A33.592 33.592 0 0021.247 101c.72-1.52 1.23-3.13 1.52-4.787.175-1.08.429-2.147.759-3.191 1.33-4.506 4.082-7.603 6.835-11.077h.001z" fill="#E1B43C"/><path fill-rule="evenodd" clip-rule="evenodd" d="M19.254 104.286c3.327-.844 8.26-4.975 9.968-7.04a28.228 28.228 0 014.272-3.942 37.9 37.9 0 018.736-5.257c-.76 1.972-1.423 3.848-2.563 6.196-2.659 4.88-6.076 8.072-11.679 9.011-2.088.376-6.551 1.501-8.734 1.032zm.949-9.294a16.61 16.61 0 00-2.183 3.942c-.949 2.441-1.33 4.412-2.374 6.477a13.846 13.846 0 01-3.327 4.036 16.899 16.899 0 01-3.512 2.252 19.333 19.333 0 01-8.545 1.69 25.384 25.384 0 003.331-2.629 23.034 23.034 0 003.419-4.224c.664-1.127 1.329-2.066 1.993-3.003 2.944-3.942 7.026-6.102 11.202-8.535l-.004-.006z" fill="#E1B43C"/><path fill-rule="evenodd" clip-rule="evenodd" d="M.17 113.388c3.798.283 10.635-2.065 13.198-3.567a27.242 27.242 0 015.982-2.346 47.96 47.96 0 0111.2-2.159 64.756 64.756 0 01-5.127 5.257c-4.653 3.942-9.403 5.914-15.666 4.881-2.373-.376-7.594-.939-9.589-2.066h.003z" fill="#E1B43C"/></svg>