<svg width="48" height="116" fill="none" xmlns="http://www.w3.org/2000/svg"><path fill-rule="evenodd" clip-rule="evenodd" d="M22.438 13.705C27.645 9.857 33.142 4.037 42.335 0c-6.734.094-17.44 5.063-19.898 13.705zm6.062 1.221c-.91.49-1.86.9-2.843 1.22a44.937 44.937 0 00-4.548 1.222 8.959 8.959 0 00-2.937 1.971 8.506 8.506 0 00-1.705 2.159 12.138 12.138 0 00-1.611 5.443 13.075 13.075 0 011.989-1.971 12.435 12.435 0 013.127-1.972c.758-.376 1.516-.751 2.179-1.127a29.813 29.813 0 006.349-6.944v-.001z" fill="#E1B43C"/><path fill-rule="evenodd" clip-rule="evenodd" d="M14.763 26.848a19.32 19.32 0 013.127-8.26 17.816 17.816 0 001.99-3.762 33.939 33.939 0 002.084-7.033 44.255 44.255 0 00-3.884 3.003c-2.938 2.723-4.644 5.726-4.17 9.856 0 1.501.095 4.88.853 6.196zm5.213.472a11.989 11.989 0 01-2.555 1.69 35.899 35.899 0 00-4.267 2.071 9.04 9.04 0 00-2.558 2.44 10.33 10.33 0 00-1.326 2.441 11.363 11.363 0 00-.475 5.632c.44-.822.947-1.607 1.516-2.346.789-.94 1.679-1.79 2.653-2.535.664-.563 1.327-1.033 1.895-1.502 2.56-2.252 3.696-4.974 5.117-7.885v-.006z" fill="#E1B43C"/><path fill-rule="evenodd" clip-rule="evenodd" d="M8.794 41.681c-.473-2.44.664-6.944 1.422-8.73a19.89 19.89 0 001.231-4.036 34.4 34.4 0 00.663-7.321 44.71 44.71 0 00-3.222 3.661c-2.368 3.285-3.411 6.477-2.18 10.416a21.53 21.53 0 002.084 6.007l.002.003zm6.066-1.974a16.196 16.196 0 01-2.18 2.629 47.76 47.76 0 00-3.885 3.471 8.621 8.621 0 00-1.895 3.38 9.258 9.258 0 00-.563 3.004 13.3 13.3 0 001.231 6.102c.29-1.127.569-2.066.852-3.003a18.409 18.409 0 011.99-3.568c.568-.75 1.043-1.501 1.515-2.252 1.99-3.003 2.369-6.288 2.937-9.761l-.003-.002z" fill="#E1B43C"/><path fill-rule="evenodd" clip-rule="evenodd" d="M7.563 58.48c-1.327-2.44-1.516-7.603-1.231-9.76a25.88 25.88 0 000-4.694 36.02 36.02 0 00-1.612-7.98c-.758 1.502-1.516 3.004-2.274 4.882C1.024 45.152.93 48.906 3.488 52.755c.853 1.408 2.653 4.693 4.075 5.726zm4.828-4.222a15.784 15.784 0 01-1.61 3.097c-1.137 1.69-2.274 2.817-3.127 4.318a9.494 9.494 0 00-1.137 3.848 16.835 16.835 0 000 3.097 13.776 13.776 0 002.559 5.914c-.007-1.07.09-2.14.289-3.191a16.058 16.058 0 011.231-3.942c.38-.94.758-1.69 1.042-2.535 1.326-3.567 1.043-6.943.758-10.606h-.005z" fill="#E1B43C"/><path fill-rule="evenodd" clip-rule="evenodd" d="M9.173 74.531a20.776 20.776 0 01-3.316-9.48 20.889 20.889 0 00-1.041-4.694 32.115 32.115 0 00-3.413-7.697 52.845 52.845 0 00-1.23 5.444c-.57 4.506.189 8.354 3.506 11.639 1.326 1.221 3.885 4.13 5.497 4.787l-.003.001zm3.507-6.383a13.32 13.32 0 01-.663 3.662 51.903 51.903 0 00-1.801 5.445 10.994 10.994 0 00.095 4.318c.22 1.101.57 2.173 1.043 3.191a14.388 14.388 0 004.548 5.257 15.603 15.603 0 01-.758-3.38 17.92 17.92 0 010-4.505c.094-1.033.19-2.066.29-2.911.095-4.036-1.327-7.415-2.749-11.077h-.006z" fill="#E1B43C"/><path fill-rule="evenodd" clip-rule="evenodd" d="M15.996 90.11c-2.559-1.59-5.591-6.475-6.539-8.73A30.538 30.538 0 006.9 76.876a39.513 39.513 0 00-5.97-6.852c.095 1.881.19 3.662.474 6.008.948 4.881 2.938 8.535 7.39 10.795 1.706.845 5.209 3.097 7.202 3.285zm1.516-8.165c.35 1.35.54 2.736.568 4.13a49.214 49.214 0 000 6.477c.202 1.617.717 3.18 1.516 4.6a16.498 16.498 0 002.274 3.097 15.938 15.938 0 006.727 4.036 33.592 33.592 0 01-1.99-3.285 18.687 18.687 0 01-1.515-4.787 22.758 22.758 0 00-.758-3.191c-1.325-4.506-4.074-7.605-6.822-11.077z" fill="#E1B43C"/><path fill-rule="evenodd" clip-rule="evenodd" d="M28.598 104.286c-3.316-.844-8.246-4.975-9.948-7.04a28.198 28.198 0 00-4.263-3.942 37.805 37.805 0 00-8.719-5.257c.758 1.972 1.422 3.848 2.558 6.196 2.653 4.88 6.064 8.072 11.655 9.011 2.084.376 6.633 1.501 8.717 1.032zm-.95-9.29a16.614 16.614 0 012.18 3.942c.948 2.44 1.327 4.412 2.37 6.477a13.846 13.846 0 003.317 4.036 16.858 16.858 0 003.507 2.252 19.26 19.26 0 008.535 1.69 25.42 25.42 0 01-3.316-2.629 23.033 23.033 0 01-3.411-4.224c-.663-1.127-1.327-2.066-1.99-3.003-2.936-3.942-6.917-6.102-11.18-8.535l-.012-.006z" fill="#E1B43C"/><path fill-rule="evenodd" clip-rule="evenodd" d="M47.735 113.392c-3.79.282-10.612-2.065-13.164-3.567a27.185 27.185 0 00-5.969-2.346 47.757 47.757 0 00-11.188-2.159 64.649 64.649 0 005.117 5.257c4.642 3.942 9.38 5.914 15.635 4.881 2.274-.376 7.484-.939 9.57-2.066h-.001z" fill="#E1B43C"/></svg>