<svg width="28" height="27" fill="none" xmlns="http://www.w3.org/2000/svg"><path d="M21.746 26.257c-1.074 0-2.371-.263-3.797-.79-3.128-1.154-6.53-3.434-9.58-6.42-3.051-2.985-5.382-6.314-6.561-9.376C.734 6.89.73 4.605 1.798 3.561c.155-.152.313-.313.474-.479C3.247 2.08 4.375.94 5.808 1.002c1.007.041 1.982.653 2.982 1.868 2.949 3.59 1.62 4.869.081 6.352l-.272.263c-.252.247-.729 1.387 3.698 5.718 1.447 1.414 2.678 2.449 3.661 3.075.621.394 1.729.989 2.183.545l.274-.27c1.514-1.504 2.821-2.8 6.488.084 1.243.977 1.867 1.93 1.909 2.917.06 1.429-1.104 2.51-2.13 3.463-.168.157-.333.309-.486.459-.533.52-1.38.781-2.45.781zM5.705 1.85c-1.037 0-1.974.965-2.804 1.818-.167.171-.33.339-.488.494-.796.777-.714 2.823.206 5.211 1.138 2.95 3.398 6.174 6.363 9.076 2.966 2.902 6.26 5.113 9.274 6.226 2.44.9 4.53.98 5.326.2.159-.155.328-.313.502-.474.892-.83 1.904-1.77 1.86-2.813-.03-.716-.563-1.487-1.585-2.29-3.056-2.402-3.91-1.552-5.326-.149l-.278.274c-.675.664-1.775.519-3.27-.433-1.033-.657-2.313-1.73-3.802-3.187-3.673-3.594-4.849-5.793-3.698-6.92l.277-.268c1.44-1.386 2.307-2.223-.149-5.213-.821-.999-1.608-1.52-2.34-1.55-.023-.002-.046-.002-.068-.002zm16.192 9.59a.44.44 0 01-.163-.032.42.42 0 01-.239-.553 3.51 3.51 0 00-.802-3.867c-1.067-1.044-2.707-1.334-4.083-.729a.438.438 0 01-.574-.211.42.42 0 01.216-.562c1.703-.754 3.734-.391 5.055.902a4.344 4.344 0 01.992 4.787.436.436 0 01-.402.264z" fill="#fff"/><path d="M25.774 12.979a.44.44 0 01-.164-.032.42.42 0 01-.238-.552c1.185-2.86.51-6.118-1.72-8.301-2.29-2.241-5.813-2.87-8.765-1.564a.441.441 0 01-.575-.212.423.423 0 01.218-.564c3.279-1.449 7.19-.752 9.736 1.739 2.477 2.424 3.228 6.043 1.91 9.22a.434.434 0 01-.402.266z" fill="#fff"/><path d="M21.746 26.257c-1.074 0-2.371-.263-3.797-.79-3.128-1.154-6.53-3.434-9.58-6.42-3.051-2.985-5.382-6.314-6.561-9.376C.734 6.89.73 4.605 1.798 3.561c.155-.152.313-.313.474-.479C3.247 2.08 4.375.94 5.808 1.002c1.007.041 1.982.653 2.982 1.868 2.949 3.59 1.62 4.869.081 6.352l-.272.263c-.252.247-.729 1.387 3.698 5.718 1.447 1.414 2.678 2.449 3.661 3.075.621.394 1.729.989 2.183.545l.274-.27c1.514-1.504 2.821-2.8 6.488.084 1.243.977 1.867 1.93 1.909 2.917.06 1.429-1.104 2.51-2.13 3.463-.168.157-.333.309-.486.459-.533.52-1.38.781-2.45.781zM5.705 1.85c-1.037 0-1.974.965-2.804 1.818-.167.171-.33.339-.488.494-.796.777-.714 2.823.206 5.211 1.138 2.95 3.398 6.174 6.363 9.076 2.966 2.902 6.26 5.113 9.274 6.226 2.44.9 4.53.98 5.326.2.159-.155.328-.313.502-.474.892-.83 1.904-1.77 1.86-2.813-.03-.716-.563-1.487-1.585-2.29-3.056-2.402-3.91-1.552-5.326-.149l-.278.274c-.675.664-1.775.519-3.27-.433-1.033-.657-2.313-1.73-3.802-3.187-3.673-3.594-4.849-5.793-3.698-6.92l.277-.268c1.44-1.386 2.307-2.223-.149-5.213-.821-.999-1.608-1.52-2.34-1.55-.023-.002-.046-.002-.068-.002zm16.192 9.59a.44.44 0 01-.163-.032.42.42 0 01-.239-.553 3.51 3.51 0 00-.802-3.867c-1.067-1.044-2.707-1.334-4.083-.729a.438.438 0 01-.574-.211.42.42 0 01.216-.562c1.703-.754 3.734-.391 5.055.902a4.344 4.344 0 01.992 4.787.436.436 0 01-.402.264z" stroke="#fff" stroke-width="1.4"/><path d="M25.774 12.979a.44.44 0 01-.164-.032.42.42 0 01-.238-.552c1.185-2.86.51-6.118-1.72-8.301-2.29-2.241-5.813-2.87-8.765-1.564a.441.441 0 01-.575-.212.423.423 0 01.218-.564c3.279-1.449 7.19-.752 9.736 1.739 2.477 2.424 3.228 6.043 1.91 9.22a.434.434 0 01-.402.266z" stroke="#fff" stroke-width="1.4"/></svg>