<svg width="112" height="86" fill="none" xmlns="http://www.w3.org/2000/svg"><path d="M27.024 31.283H12.89l-2.662 7.225c-.823 2.154-1.14 3.042-1.14 4.246 0 2.091 1.52 2.852 4.119 2.979V47H1.04v-1.267c4.12-.508 5.197-1.965 10.14-14.577l4.943-12.675c1.078-2.788 2.155-5.26 2.155-5.957 0-.634.063-.76.317-1.14l2.852-4.31c.443-.634.634-.76 1.077-.76 1.14 0 1.014 1.837 2.852 6.59l9.506 24.4c2.916 7.351 3.676 8.048 7.605 8.428V47h-15.78v-1.267c3.422-.38 4.31-1.014 4.31-2.282 0-1.077-.38-2.662-1.015-4.31l-2.978-7.858zm-13.436-1.774H26.39l-5.45-14.006a33.288 33.288 0 01-.888-2.789h-.126c-.76 2.535-2.599 7.035-3.106 8.366l-3.232 8.429zM94.893 47v-1.267c4.563-.254 5.641-1.014 5.577-3.676-.253-9.507-.253-19.266-.633-28.582h-.127c-5.07 10.964-10.774 22.371-15.02 32.891h-.887c-1.141-2.471-2.852-7.351-4.88-11.407-2.091-4.183-6.274-13.5-10.013-22.245h-.127c-.064 10.33-.507 20.027-.507 25.794 0 5.133 1.14 7.224 5.767 7.224V47H60.861v-1.267c3.612-.634 4.943-1.521 5.324-6.655.633-8.112.95-20.47.95-23.766 0-6.464-.887-6.97-5.704-7.224V6.82h10.457L83.17 32.424c.887 2.028 1.838 3.739 2.662 6.147l15.273-31.75h9.76v1.267c-5.007.317-6.084 1.52-6.084 6.4 0 2.472.443 16.415.634 27.886.063 2.535 1.521 3.105 5.45 3.358V47h-15.97z" fill="#E8BB1C"/><path d="M8.165 69.582c0-1.176.474-2.142 1.422-2.898.957-.757 2.187-1.135 3.691-1.135 1.45 0 2.648.392 3.596 1.176.957.774 1.48 1.786 1.572 3.035H16.71c-.11-.848-.474-1.513-1.094-1.996-.61-.483-1.408-.725-2.393-.725-.966 0-1.754.233-2.365.697-.601.456-.902 1.04-.902 1.75 0 .584.219 1.062.656 1.436.438.365 1.13.665 2.078.902l2.106.506c1.422.356 2.429.82 3.021 1.395.593.574.889 1.371.889 2.392 0 1.203-.51 2.192-1.531 2.967-1.021.766-2.334 1.148-3.938 1.148-1.522 0-2.789-.387-3.8-1.162-1.003-.774-1.564-1.79-1.682-3.048h1.804c.128.847.525 1.512 1.19 1.996.674.483 1.54.724 2.598.724 1.066 0 1.923-.228 2.57-.683.647-.456.97-1.058.97-1.805 0-.62-.2-1.108-.601-1.463-.392-.365-1.062-.66-2.01-.889l-2.31-.574c-1.285-.319-2.243-.784-2.871-1.394-.62-.62-.93-1.404-.93-2.352zm19.354-7.355h1.804v3.554h2.803v1.504h-2.803v9.133c0 .73.15 1.262.452 1.6.3.328.779.492 1.435.492.51 0 .839-.019.984-.055V80c-.255.055-.701.082-1.34.082-1.193 0-2.05-.273-2.57-.82-.51-.556-.765-1.477-.765-2.762v-9.215h-2.12v-1.504h2.12v-3.554zm13.79 22.914a4.66 4.66 0 01-.903-.082v-1.545c.219.054.506.082.861.082.647 0 1.167-.183 1.559-.547.4-.365.76-.994 1.08-1.887l.383-1.066-5.332-14.315h1.941l4.32 12.414h.041l4.334-12.414h1.9l-5.591 15.08c-.62 1.668-1.249 2.798-1.887 3.391-.638.592-1.54.889-2.707.889zM59.007 80V60.272h1.804V80h-1.804zm10.768 0V65.781h1.805V80h-1.805zm.902-17.09a1.18 1.18 0 01-.847-.342 1.173 1.173 0 01-.356-.861c0-.328.119-.606.356-.834.236-.237.519-.355.847-.355.337 0 .624.118.862.355.236.228.355.506.355.834 0 .337-.119.624-.355.861a1.198 1.198 0 01-.862.342zm9.456 6.672c0-1.176.474-2.142 1.421-2.898.957-.757 2.188-1.135 3.692-1.135 1.45 0 2.648.392 3.596 1.176.957.774 1.48 1.786 1.572 3.035h-1.737c-.109-.848-.473-1.513-1.093-1.996-.61-.483-1.408-.725-2.393-.725-.966 0-1.754.233-2.365.697-.602.456-.902 1.04-.902 1.75 0 .584.218 1.062.656 1.436.437.365 1.13.665 2.078.902l2.105.506c1.422.356 2.43.82 3.022 1.395.592.574.889 1.371.889 2.392 0 1.203-.51 2.192-1.532 2.967-1.02.766-2.333 1.148-3.937 1.148-1.522 0-2.79-.387-3.8-1.162-1.004-.774-1.564-1.79-1.683-3.048h1.805c.128.847.524 1.512 1.19 1.996.674.483 1.54.724 2.597.724 1.067 0 1.923-.228 2.57-.683.648-.456.971-1.058.971-1.805 0-.62-.2-1.108-.601-1.463-.392-.365-1.062-.66-2.01-.889l-2.31-.574c-1.286-.319-2.243-.784-2.872-1.394-.62-.62-.93-1.404-.93-2.352zm19.353-7.355h1.805v3.554h2.803v1.504h-2.803v9.133c0 .73.151 1.262.451 1.6.301.328.78.492 1.436.492.51 0 .838-.019.984-.055V80c-.255.055-.702.082-1.34.082-1.194 0-2.05-.273-2.57-.82-.51-.556-.766-1.477-.766-2.762v-9.215h-2.119v-1.504h2.12v-3.554z" fill="#fff"/><path fill="#E8BB1C" d="M51 0h2v53h-2z"/></svg>