<svg width="82" height="72" fill="none" xmlns="http://www.w3.org/2000/svg"><path d="M18.857 35.346c.016-.052.037-.07.05-.08A.164.164 0 0119 35.24c.04 0 .073.013.092.026.014.01.035.028.051.08l3.093 10.02a1.85 1.85 0 001.768 1.304h10.112c.052 0 .076.014.09.024.02.015.04.04.052.078.013.037.012.07.006.093-.005.017-.016.042-.056.074l-8.269 6.323a1.85 1.85 0 00-.643 2.015l3.137 10.163c.015.052.009.079.003.095a.163.163 0 01-.061.073.164.164 0 01-.09.031c-.016 0-.044-.003-.087-.035l-8.074-6.175a1.85 1.85 0 00-2.248 0l-8.074 6.175c-.043.032-.07.035-.088.035a.164.164 0 01-.089-.031.164.164 0 01-.06-.073c-.007-.016-.013-.043.002-.095l3.137-10.163a1.85 1.85 0 00-.643-2.015L3.792 46.94c-.04-.032-.051-.057-.056-.074a.163.163 0 01.006-.093.162.162 0 01.052-.078c.014-.01.038-.024.09-.024h10.112a1.85 1.85 0 001.768-1.305l3.093-10.019zm23-32c.016-.052.037-.07.05-.08A.165.165 0 0142 3.24c.04 0 .073.013.092.026.014.01.035.028.051.08l3.093 10.02a1.85 1.85 0 001.768 1.304h10.112c.052 0 .076.014.09.024.02.015.04.04.052.078.013.037.012.07.006.093-.005.017-.016.042-.056.074l-8.269 6.323a1.85 1.85 0 00-.644 2.015l3.138 10.163c.015.052.009.079.002.095a.163.163 0 01-.06.073.164.164 0 01-.09.031c-.016 0-.044-.003-.087-.035l-8.074-6.175a1.85 1.85 0 00-2.248 0l-8.074 6.175c-.043.032-.07.035-.088.035a.164.164 0 01-.089-.031.163.163 0 01-.06-.073c-.007-.016-.013-.043.002-.095l3.138-10.163a1.85 1.85 0 00-.644-2.015l-8.268-6.323c-.041-.032-.052-.057-.057-.074a.163.163 0 01.005-.093.162.162 0 01.053-.078c.014-.01.038-.024.09-.024h10.112a1.85 1.85 0 001.768-1.305l3.093-10.019zm21 32c.016-.052.037-.07.05-.08A.164.164 0 0163 35.24c.04 0 .073.013.092.026.014.01.035.028.051.08l3.093 10.02a1.85 1.85 0 001.768 1.304h10.112c.052 0 .076.014.09.024.02.015.04.04.052.078.013.037.012.07.006.093-.005.017-.015.042-.056.074l-8.269 6.323a1.85 1.85 0 00-.643 2.015l3.137 10.163c.015.052.009.079.002.095a.163.163 0 01-.06.073.164.164 0 01-.09.031c-.016 0-.044-.003-.087-.035l-8.074-6.175a1.85 1.85 0 00-2.248 0l-8.074 6.175c-.043.032-.07.035-.088.035a.164.164 0 01-.089-.031.163.163 0 01-.06-.073c-.007-.016-.013-.043.002-.095l3.138-10.163a1.85 1.85 0 00-.644-2.015l-8.269-6.323c-.04-.032-.051-.057-.056-.074a.163.163 0 01.006-.093.162.162 0 01.052-.078c.014-.01.038-.024.09-.024h10.112a1.85 1.85 0 001.768-1.305l3.093-10.019z" stroke="#fff" stroke-width="1.7"/></svg>