<svg width="68" height="68" fill="none" xmlns="http://www.w3.org/2000/svg"><path d="M34 .9h0a32.907 32.907 0 00-18.39 5.625A33.316 33.316 0 003.42 21.503a33.63 33.63 0 00-1.884 19.282 33.46 33.46 0 009.059 17.088 33.016 33.016 0 0016.947 9.134 32.848 32.848 0 0019.125-1.9 33.161 33.161 0 0014.855-12.292A33.571 33.571 0 0067.1 34.274v0a33.565 33.565 0 00-9.71-23.584A33.013 33.013 0 0034 .9zm0 65.07a31.249 31.249 0 01-17.463-5.342A31.64 31.64 0 014.959 46.404 31.94 31.94 0 013.171 28.09a31.778 31.778 0 018.602-16.228 31.354 31.354 0 0116.095-8.674 31.192 31.192 0 0118.16 1.803 31.492 31.492 0 0114.108 11.674 31.885 31.885 0 015.297 17.609 31.875 31.875 0 01-9.22 22.4A31.347 31.347 0 0134 65.968z" fill="#fff" stroke="#fff" stroke-width=".2"/><path d="M48.183 43.228l-10.508-18.97-.16-1.653 3.699-7.353a.453.453 0 000-.373c-.054-.107-.215-.16-.322-.16H26.417c-.107 0-.268.053-.322.16-.053.106-.107.213-.053.373l3.699 7.353-3.753 29.735c0 .107.054.213.108.32l6.969 6.395c.16.106.375.106.482 0l6.97-6.395c.107-.106.107-.213.107-.32l-1.448-13.642 4.182 7.408c.053.106.107.16.214.16l3.324 1.119c.107.053.215 0 .322-.054a.293.293 0 00.16-.266l.751-3.624c.107-.053.054-.106.054-.213zM27.007 15.411h13.241l-3.377 6.715h-6.487l-3.377-6.715zm6.38 42.844l-6.595-6.021 3.7-29.309h6.326l1.447 14.015 1.662 15.24-6.54 6.075zm13.402-11.723L44 45.626l-4.985-8.846-1.126-10.604 9.542 17.265-.643 3.09z" fill="#fff" stroke="#fff" stroke-miterlimit="10"/></svg>