<svg width="88" height="64" fill="none" xmlns="http://www.w3.org/2000/svg"><path d="M79.249 7.545a1.504 1.504 0 00-2.042-.098 1.504 1.504 0 00-.097 2.042c4.861 5.251 7.584 11.961 7.973 18.962h-3.014c-.778 0-1.459.68-1.459 1.459 0 .778.68 1.458 1.459 1.458h3.014c-.778 15.559-13.224 28.005-28.685 28.686V57.04c0-.778-.68-1.459-1.459-1.459-.777 0-1.458.68-1.458 1.459v3.014c-15.46-.778-27.907-13.225-28.685-28.686h3.014c.778 0 1.459-.68 1.459-1.458 0-.778-.68-1.459-1.459-1.459h-3.014c.583-10.988 7.196-20.906 17.211-25.671.68-.389 1.07-1.167.68-1.945-.388-.68-1.263-1.07-1.944-.68C29.269 5.6 21.879 17.269 21.879 30.007c0 18.184 14.877 33.061 33.06 33.061C73.124 63.068 88 48.191 88 30.007a33.067 33.067 0 00-8.75-22.462z" fill="#fff"/><path d="M53.775 25.631l-15.85-15.85c-.584-.583-1.459-.583-2.042 0-.584.584-.584 1.459 0 2.042l15.46 15.461c-.583.778-.875 1.654-.875 2.723a4.461 4.461 0 004.473 4.473c2.431 0 4.473-2.042 4.473-4.473 0-.68-.194-1.361-.486-1.945l12.835-12.835c.584-.584.584-1.459 0-2.042-.583-.584-1.458-.584-2.041 0L56.886 25.923c-.583-.292-1.264-.486-1.945-.486-.389 0-.778.097-1.166.194zm-35.3 2.916H1.459C.68 28.547 0 29.13 0 30.006c0 .875.68 1.458 1.459 1.458h17.016c.778 0 1.459-.68 1.459-1.458 0-.778-.681-1.46-1.459-1.46zm-2.429 12.156H6.322c-.778 0-1.459.68-1.459 1.459 0 .778.68 1.458 1.459 1.458h9.724c.777 0 1.458-.68 1.458-1.458 0-.778-.68-1.459-1.458-1.459z" fill="#fff"/></svg>