<svg width="67" height="66" fill="none" xmlns="http://www.w3.org/2000/svg"><path d="M21.137 38.63a10.988 10.988 0 01-3.34-6.141c-.232-2.254.623-4.586 3.343-6.995a6.188 6.188 0 001.943-2.487 4.869 4.869 0 00-.7-3.964 923.245 923.245 0 00-7.305-9.483 4.309 4.309 0 00-4.275-1.244 9.936 9.936 0 00-3.42 2.332C1.477 16.555-.777 22.152.233 27.903c1.01 5.751 5.13 11.504 11.504 17.877l7.694 7.694c6.451 6.451 12.126 10.494 17.877 11.504 5.752 1.01 11.426-1.243 17.255-7.15a9.935 9.935 0 002.332-3.42 4.154 4.154 0 00-1.244-4.274c-2.875-2.254-6.298-4.824-9.483-7.306a5.189 5.189 0 00-3.963-.7 6.187 6.187 0 00-2.487 1.944c-2.412 2.72-4.824 3.497-6.995 3.341a9.926 9.926 0 01-6.14-3.341l-5.446-5.442zm-7.15-27.98c2.332 3.03 4.663 6.14 7.072 9.172a3.28 3.28 0 01.544 2.72 5.324 5.324 0 01-1.554 1.865 9.979 9.979 0 00-3.808 8.316 11.238 11.238 0 003.808 7.073l5.52 5.518a12.05 12.05 0 007.073 3.808 9.978 9.978 0 008.316-3.808 5.323 5.323 0 011.866-1.555c.622-.233 1.32-.155 2.72.544 3.031 2.332 6.14 4.664 9.172 7.073a2.522 2.522 0 01.855 2.72 8.7 8.7 0 01-1.943 2.798c-5.673 5.674-10.649 7.617-15.856 6.684-5.207-.933-10.804-4.741-17.1-11.115l-7.698-7.693C6.676 38.472 2.79 32.877 1.859 27.67c-.932-5.207 1.01-10.184 6.683-15.856A8.701 8.701 0 0111.34 9.87c.855-.389 1.633-.311 2.643.777l.004.001zM31.164.856a.91.91 0 00.855.7 33.365 33.365 0 0133.423 33.423.778.778 0 001.554 0A35.029 35.029 0 0032.022.005a.776.776 0 00-.858.85z" fill="#fff"/><path d="M33.646 24.922h.2v-.326h0v-.005l-.016-.6-.005-.195h-5.453l2.433-2.491a12.246 12.246 0 001.985-2.474h0l.005-.008a4.497 4.497 0 00.554-2.128 2.858 2.858 0 00-.856-2.187h0l-.009-.008a3.27 3.27 0 00-2.324-.797 4.703 4.703 0 00-3.076 1.168l-.143.126.119.15.399.498.129.161.157-.134a3.822 3.822 0 012.427-.911h.005a2.057 2.057 0 011.475.543 1.885 1.885 0 01.568 1.407h0v.006c0 .406-.074.808-.218 1.187a5.265 5.265 0 01-.685 1.21 21.199 21.199 0 01-1.657 1.87h0l-.002.002-2.834 2.95-.055.057v.93h6.877zm8.316-2.716h.2v-1.031h-1.839V13.82h-1.181l-.06.085-5.27 7.505-.035.052v.743h5.467v2.718h1.08v-2.717h1.638zm-2.718-1.014h-4.037l3.54-5.053h0l.003-.004.115-.173c.174-.262.322-.484.442-.667a64.688 64.688 0 00-.063 3.049v2.848zm9.245 12.985l-.124.281h1.32l.053-.12 4.388-10.107.017-.038v-.772H46.85v1.096h5.902l-4.264 9.66zm1.09-19.037l.136-.285H48.61l-.055.113-9.278 19.22-.139.286h1.274l.054-.114 9.113-19.22z" fill="#fff" stroke="#fff" stroke-width=".4"/></svg>