<svg width="77" height="64" fill="none" xmlns="http://www.w3.org/2000/svg"><path d="M26.961 26.85a12.31 12.31 0 01-.457-6.9c.508-2.333 1.626-4.515 3.353-6.29 4.877-5.023 12.955-5.125 17.934-.204l.254.254-.051-1.725c0-.203.152-.355.355-.355.204 0 .356.152.356.355l.05 2.588a.347.347 0 01-.355.355l-2.59.05a.347.347 0 01-.356-.355c0-.203.152-.355.355-.355l1.727-.05-.254-.254a11.9 11.9 0 00-8.534-3.4c-3.201.051-6.198 1.32-8.434 3.603-3.251 3.297-4.267 8.066-2.692 12.43.05.202-.051.405-.203.456-.051 0-.102.05-.102.05-.203-.05-.305-.1-.356-.253zm20.525 4.059c-4.623 4.718-12.244 4.82-16.918.203l-.305-.254 1.728-.05c.203 0 .355-.204.355-.356 0-.203-.203-.355-.355-.355l-2.591.05c-.203 0-.356.204-.356.356l.051 2.587c0 .203.203.355.356.355.203 0 .355-.203.355-.355l-.05-1.725.253.254c2.49 2.385 5.69 3.602 8.891 3.602a12.7 12.7 0 009.094-3.805c1.727-1.725 2.845-3.906 3.353-6.29a13.293 13.293 0 00-.458-6.9c-.05-.203-.254-.305-.457-.203-.203.05-.305.253-.203.456 1.473 4.363.457 9.081-2.743 12.43z" fill="#fff" stroke="#fff" stroke-width="1.1"/><path d="M4.435 0a4.382 4.382 0 00-4.11 2.732A4.39 4.39 0 000 4.437v44.364a4.39 4.39 0 004.435 4.445h26.602v8.872H27.49a.887.887 0 000 1.774h21.28a.886.886 0 100-1.774h-3.546v-8.872h26.6a4.384 4.384 0 004.434-4.437V4.437A4.389 4.389 0 0071.824 0H4.434zm0 1.774h67.389a2.61 2.61 0 012.669 2.671v36.378H1.775V4.445a2.615 2.615 0 012.66-2.669v-.002zm-2.67 40.823h72.71v6.212a2.617 2.617 0 01-1.638 2.483 2.608 2.608 0 01-1.03.187H4.435a2.608 2.608 0 01-2.482-1.64 2.615 2.615 0 01-.187-1.03v-6.212zm36.356 2.671a1.773 1.773 0 00-1.254 3.029 1.773 1.773 0 003.027-1.255 1.78 1.78 0 00-1.764-1.791l-.01.017zm-5.312 7.978h10.64v8.872h-10.64v-8.872z" fill="#fff"/></svg>