<svg width="68" height="68" fill="none" xmlns="http://www.w3.org/2000/svg"><path d="M48.737 19.414h0l-.003-.002a2.13 2.13 0 00-2.924 0h0l-.002.002-16.796 16.934-6.822-6.879h0l-.002-.002a2.13 2.13 0 00-2.924 0h0l-.002.002-4.18 4.214a2.023 2.023 0 00-.635 1.477 2.036 2.036 0 00.635 1.476l12.465 12.568s0 0 0 0a2.048 2.048 0 001.465.621 2.034 2.034 0 001.464-.62v-.001l22.439-22.625s0 0 0 0a2.065 2.065 0 00.616-1.476 2.079 2.079 0 00-.616-1.476s0 0 0 0l-4.178-4.213zM28.87 38.558l.07.072.072-.072 17.891-18.042h0l.005-.005a.39.39 0 01.451-.098l.042-.091-.042.09a.39.39 0 01.132.099h0l.004.005 4.179 4.213a.47.47 0 01.12.303v.017l.005.016a.358.358 0 01-.055.342L29.31 48.03s0 0 0 0a.473.473 0 01-.666 0s0 0 0 0L16.178 35.461s0 0 0 0a.483.483 0 010-.674s0 0 0 0l4.179-4.213s0 0 0 0a.426.426 0 01.594 0s0 0 0 0l7.919 7.984z" fill="#fff" stroke="#fff" stroke-width=".2"/><path d="M34 .9h0a32.907 32.907 0 00-18.39 5.625A33.316 33.316 0 003.42 21.503a33.63 33.63 0 00-1.884 19.282 33.46 33.46 0 009.059 17.088 33.016 33.016 0 0016.947 9.134 32.848 32.848 0 0019.125-1.9 33.161 33.161 0 0014.855-12.292A33.571 33.571 0 0067.1 34.274v0a33.565 33.565 0 00-9.71-23.584A33.013 33.013 0 0034 .9zm0 65.07a31.249 31.249 0 01-17.463-5.342A31.64 31.64 0 014.959 46.404 31.94 31.94 0 013.171 28.09a31.778 31.778 0 018.602-16.228 31.354 31.354 0 0116.095-8.674 31.192 31.192 0 0118.16 1.803 31.492 31.492 0 0114.108 11.674 31.885 31.885 0 015.297 17.609 31.875 31.875 0 01-9.22 22.4A31.347 31.347 0 0134 65.968z" fill="#fff" stroke="#fff" stroke-width=".2"/></svg>