<svg width="33" height="29" fill="none" xmlns="http://www.w3.org/2000/svg"><path d="M9.243 19.599l3.64-1.61-1.021 1.042a1.79 1.79 0 00-.511 1.254v6.94c0 1.59 1.885 2.36 2.971 1.253l3.654-3.722 7.962 4.056c1.03.525 2.277-.097 2.491-1.27l4.543-25.447c.239-1.37-1.084-2.476-2.35-1.97L1.106 11.895c-1.323.524-1.5 2.369-.302 3.147l6.81 4.427a1.71 1.71 0 001.63.13zm19.745-15.01l-3.567 19.995-7.01-3.569a1.714 1.714 0 00-2.009.334l-1.569 1.598v-1.922l6.98-7.111c1.354-1.379-.17-3.654-1.924-2.88L8.707 15.976l-3.143-2.043L28.988 4.59z" fill="#fff"/></svg>