<svg width="30" height="30" fill="none" xmlns="http://www.w3.org/2000/svg"><path fill-rule="evenodd" clip-rule="evenodd" d="M25.63 4.36A14.878 14.878 0 0015.064 0C6.83 0 .127 6.669.127 14.864a14.734 14.734 0 001.992 7.432L0 30l7.92-2.07a15.002 15.002 0 007.139 1.812h.005c8.232 0 14.931-6.668 14.936-14.868A14.75 14.75 0 0025.63 4.36zM15.064 27.23h-.005c-2.227 0-4.414-.598-6.319-1.721l-.454-.268-4.702 1.225 1.255-4.559-.293-.467a12.283 12.283 0 01-1.9-6.576c0-6.81 5.572-12.351 12.422-12.351 3.316 0 6.431 1.288 8.775 3.621a12.26 12.26 0 013.633 8.74c0 6.814-5.572 12.355-12.412 12.355zm6.806-9.255c-.371-.185-2.207-1.084-2.549-1.206-.341-.126-.59-.184-.84.185-.249.374-.962 1.21-1.181 1.458-.215.243-.435.277-.806.093-.376-.185-1.577-.579-3.003-1.848-1.108-.981-1.86-2.201-2.075-2.57-.22-.375-.024-.574.161-.76.171-.164.376-.432.562-.65.185-.214.249-.37.376-.618.122-.248.058-.466-.035-.651-.092-.185-.84-2.017-1.152-2.76-.303-.725-.61-.623-.84-.638C10.273 8 10.024 8 9.775 8a1.37 1.37 0 00-.996.467c-.341.37-1.303 1.269-1.303 3.096 0 1.828 1.337 3.597 1.523 3.845.186.243 2.632 3.996 6.377 5.605.889.384 1.582.612 2.124.782.894.282 1.709.243 2.354.15.717-.106 2.207-.898 2.519-1.768.308-.866.308-1.61.215-1.765-.093-.155-.342-.248-.718-.437z" fill="#fff"/></svg>